<?xml version="1.0" encoding="UTF-8" standalone="no"?>
<!DOCTYPE svg PUBLIC "-//W3C//DTD SVG 1.1//EN" "http://www.w3.org/Graphics/SVG/1.1/DTD/svg11.dtd">
<svg xmlns="http://www.w3.org/2000/svg" version="1.1" viewBox="0.00 0.00 613.00 407.00">
<path fill="#000000" d="
  M 374.67 18.52
  A 0.17 0.17 0.0 0 1 374.93 18.66
  L 374.93 54.38
  A 0.69 0.69 0.0 0 0 375.62 55.07
  L 396.06 55.07
  A 0.29 0.29 0.0 0 1 396.35 55.36
  L 396.35 67.10
  A 0.70 0.69 -0.0 0 1 395.65 67.79
  L 375.43 67.79
  A 0.52 0.52 0.0 0 0 374.91 68.31
  L 374.91 141.23
  A 1.11 1.11 0.0 0 0 376.02 142.34
  L 395.56 142.34
  A 0.78 0.78 0.0 0 1 396.34 143.12
  L 396.34 155.92
  A 0.72 0.71 89.2 0 1 395.65 156.64
  Q 389.85 156.84 385.25 156.51
  C 378.15 155.99 374.25 150.07 374.95 143.35
  A 0.90 0.90 0.0 0 0 374.13 142.36
  C 370.97 142.08 365.65 140.61 363.35 138.41
  C 358.63 133.91 358.34 126.70 358.38 120.25
  Q 358.57 94.73 358.42 68.78
  A 0.97 0.97 0.0 0 0 357.45 67.81
  L 343.20 67.81
  A 0.70 0.70 0.0 0 1 342.50 67.11
  L 342.50 55.67
  A 0.60 0.59 -90.0 0 1 343.09 55.07
  L 357.54 55.07
  A 0.88 0.87 -0.0 0 0 358.42 54.20
  L 358.42 29.81
  A 0.95 0.94 -16.6 0 1 358.85 29.02
  L 374.67 18.52
  Z"
/>
<path fill="#000000" d="
  M 35.96 154.41
  L 35.95 20.85
  A 0.74 0.74 0.0 0 1 36.69 20.11
  Q 71.79 20.09 88.00 20.20
  C 99.53 20.27 111.16 25.09 115.25 36.52
  A 2.05 2.03 -2.9 0 0 116.69 37.81
  C 125.55 39.97 134.11 45.20 135.75 55.15
  C 136.92 62.20 136.02 69.64 131.56 75.33
  Q 125.66 82.85 116.43 84.57
  A 1.21 1.18 6.1 0 0 115.56 85.26
  C 109.50 99.21 97.58 101.40 82.40 101.32
  Q 68.10 101.25 55.33 101.20
  A 0.95 0.95 0.0 0 0 54.37 102.15
  L 54.37 154.44
  A 0.75 0.75 0.0 0 1 53.62 155.19
  L 36.74 155.19
  A 0.78 0.78 0.0 0 1 35.96 154.41
  Z
  M 54.37 61.12
  Q 54.39 79.99 54.37 85.41
  A 0.89 0.89 0.0 0 0 55.26 86.30
  Q 75.32 86.38 102.00 86.21
  Q 108.72 86.17 114.59 84.94
  A 1.82 1.82 0.0 0 0 115.97 83.67
  Q 117.53 78.44 118.36 74.48
  Q 119.39 69.64 119.38 61.05
  Q 119.37 52.45 118.33 47.61
  Q 117.49 43.66 115.92 38.43
  A 1.82 1.82 0.0 0 0 114.54 37.16
  Q 108.67 35.95 101.95 35.92
  Q 75.27 35.81 55.21 35.93
  A 0.89 0.89 0.0 0 0 54.32 36.83
  Q 54.35 42.24 54.37 61.12
  Z"
/>
<path fill="#000000" d="
  M 162.81 140.53
  C 152.75 137.46 145.39 129.69 142.28 119.40
  C 136.60 100.60 142.81 78.57 162.37 71.09
  A 4.86 4.82 2.2 0 0 164.99 68.68
  C 171.35 55.42 186.51 51.00 200.09 55.07
  C 207.28 57.22 212.81 62.38 215.64 69.16
  A 2.65 2.63 -1.0 0 0 217.14 70.60
  Q 226.92 74.29 232.69 82.16
  C 240.72 93.11 240.69 110.84 235.42 122.91
  Q 229.88 135.62 216.81 140.80
  A 2.16 2.15 3.2 0 0 215.72 141.77
  Q 214.40 144.20 214.25 144.47
  Q 208.33 154.89 196.52 156.81
  Q 187.16 158.32 178.72 155.52
  C 173.93 153.94 168.09 149.55 165.73 144.43
  Q 164.67 142.14 163.77 141.14
  A 2.10 2.05 -11.9 0 0 162.81 140.53
  Z
  M 190.23 66.17
  Q 177.82 66.13 166.41 69.19
  A 3.94 3.91 -87.6 0 0 163.72 71.68
  Q 162.28 75.76 161.32 80.80
  Q 155.87 109.49 162.86 137.53
  Q 163.30 139.30 164.28 140.77
  A 1.64 1.60 84.0 0 0 165.03 141.39
  Q 167.91 142.56 170.25 142.98
  Q 180.62 144.85 189.97 144.88
  Q 199.31 144.91 209.70 143.11
  Q 212.04 142.71 214.93 141.55
  A 1.64 1.60 -83.6 0 0 215.68 140.94
  Q 216.67 139.48 217.13 137.71
  Q 224.30 109.72 219.04 80.99
  Q 218.11 75.94 216.70 71.85
  A 3.94 3.91 88.0 0 0 214.03 69.34
  Q 202.64 66.21 190.23 66.17
  Z"
/>
<path fill="#000000" d="
  M 252.08 120.74
  L 267.89 120.74
  A 0.68 0.68 0.0 0 1 268.57 121.41
  Q 268.79 132.00 270.76 141.05
  A 1.73 1.73 0.0 0 0 272.06 142.37
  Q 294.44 147.53 317.12 142.74
  A 2.32 2.31 -1.5 0 0 318.93 140.84
  Q 319.90 134.63 319.10 128.17
  C 318.40 122.57 315.23 119.23 310.42 116.58
  C 307.83 115.15 302.02 113.12 298.34 112.20
  Q 292.82 110.84 279.60 107.31
  Q 277.52 106.76 273.58 105.37
  C 268.82 103.69 265.33 102.04 261.81 98.95
  C 254.32 92.38 254.13 80.04 261.53 73.47
  Q 264.88 70.49 270.11 68.63
  A 2.61 2.60 -89.7 0 0 271.67 67.08
  Q 273.99 60.60 280.15 57.26
  Q 289.60 52.14 299.45 54.51
  C 306.49 56.20 311.79 60.81 314.29 67.42
  A 1.38 1.35 86.7 0 0 315.20 68.25
  C 324.43 70.79 332.14 76.04 333.58 86.27
  A 0.91 0.91 0.0 0 1 332.68 87.31
  L 317.81 87.31
  A 0.70 0.69 0.0 0 1 317.11 86.62
  Q 317.04 78.13 314.62 69.12
  A 1.78 1.78 0.0 0 0 313.24 67.84
  Q 292.65 63.70 272.68 67.98
  A 2.19 2.18 89.6 0 0 271.00 69.69
  C 270.02 74.59 270.03 81.23 273.15 85.31
  C 276.94 90.25 281.11 91.59 286.72 93.49
  Q 289.41 94.41 292.89 95.22
  Q 305.80 98.23 313.35 100.68
  Q 316.49 101.69 322.74 104.78
  C 339.56 113.08 338.18 135.91 319.82 141.58
  A 1.79 1.79 0.0 0 0 318.66 142.74
  C 314.56 155.86 300.03 158.74 287.89 156.42
  C 280.08 154.93 273.77 150.15 271.07 142.62
  A 1.98 1.98 0.0 0 0 269.67 141.36
  C 260.19 139.09 251.69 131.73 251.36 121.49
  A 0.72 0.72 0.0 0 1 252.08 120.74
  Z"
/>
<path fill="#000000" d="
  M 480.79 121.29
  A 0.56 0.56 0.0 0 1 481.35 120.74
  L 497.17 120.74
  A 0.65 0.64 -85.1 0 1 497.80 121.50
  C 496.11 131.05 488.00 138.18 478.97 140.75
  A 1.47 1.46 8.6 0 0 478.14 141.36
  C 477.30 142.70 476.87 144.34 475.93 145.88
  Q 469.69 156.08 456.76 156.99
  C 444.76 157.83 433.51 153.42 429.00 142.27
  A 3.27 3.26 87.6 0 0 426.95 140.38
  C 416.90 137.25 409.48 128.65 406.58 118.43
  C 404.28 110.35 404.61 97.70 407.98 89.43
  Q 413.44 76.02 427.43 70.34
  A 2.31 2.28 1.7 0 0 428.60 69.25
  Q 436.00 54.27 453.56 53.67
  Q 455.67 53.60 461.54 55.26
  C 468.75 57.29 473.30 62.96 476.73 69.40
  A 2.96 2.94 84.5 0 0 478.45 70.83
  C 484.18 72.61 489.68 77.98 492.69 82.74
  C 497.58 90.46 498.70 99.96 498.22 108.72
  A 0.46 0.45 -88.0 0 1 497.77 109.15
  L 424.35 109.15
  A 0.94 0.93 -0.6 0 0 423.41 110.10
  Q 423.61 124.29 427.49 138.75
  Q 428.10 141.02 430.38 141.64
  Q 453.04 147.78 476.24 141.96
  A 2.65 2.64 0.9 0 0 478.15 140.12
  Q 480.59 131.52 480.79 121.29
  Z
  M 424.28 96.27
  L 479.77 96.27
  A 1.12 1.11 0.3 0 0 480.89 95.17
  Q 480.99 82.86 477.11 71.04
  A 3.01 2.97 -0.9 0 0 475.09 69.10
  Q 456.98 63.96 438.34 67.39
  Q 432.98 68.37 430.39 69.27
  C 428.46 69.94 427.85 70.80 427.28 72.77
  Q 424.00 84.03 423.51 95.46
  A 0.77 0.77 0.0 0 0 424.28 96.27
  Z"
/>
<path fill="#000000" d="
  M 538.11 74.64
  A 0.50 0.50 0.0 0 0 539.01 74.62
  Q 542.06 67.75 546.99 62.25
  Q 555.75 52.50 569.95 54.59
  A 0.87 0.86 4.3 0 1 570.69 55.44
  L 570.69 68.08
  A 0.54 0.54 0.0 0 1 570.05 68.61
  Q 556.69 66.16 545.51 74.02
  C 542.90 75.85 537.90 80.65 537.90 84.50
  Q 537.92 121.02 537.92 154.71
  A 0.57 0.57 0.0 0 1 537.35 155.28
  L 521.54 155.28
  A 0.76 0.76 0.0 0 1 520.78 154.52
  L 520.78 55.80
  A 0.73 0.73 0.0 0 1 521.51 55.07
  L 537.49 55.07
  A 0.44 0.44 0.0 0 1 537.93 55.51
  Q 537.89 70.09 537.97 74.00
  Q 537.98 74.40 538.11 74.64
  Z"
/>
<path fill="#000000" d="
  M 133.15 256.79
  L 115.63 256.79
  A 0.97 0.97 0.0 0 1 114.66 255.86
  Q 114.18 244.47 110.09 232.88
  A 3.47 3.45 89.6 0 0 107.96 230.77
  Q 97.21 227.09 86.24 226.26
  Q 71.23 225.13 55.90 227.53
  C 51.19 228.27 47.86 229.62 42.55 231.36
  A 2.42 2.41 2.5 0 0 41.09 232.69
  Q 35.32 246.05 33.25 260.08
  Q 31.32 273.26 32.01 289.02
  Q 32.90 309.44 40.82 328.38
  A 3.80 3.80 0.0 0 0 43.46 330.61
  C 51.85 332.56 56.13 333.92 62.79 334.39
  C 74.50 335.21 86.73 335.45 97.95 332.82
  Q 107.04 330.69 108.34 330.15
  C 109.92 329.50 110.27 328.01 110.87 326.51
  Q 117.76 309.37 116.83 290.70
  A 0.87 0.87 0.0 0 0 115.96 289.87
  L 77.15 289.87
  A 0.74 0.73 -0.0 0 1 76.41 289.14
  L 76.41 276.12
  A 0.62 0.61 0.0 0 1 77.03 275.51
  L 133.21 275.51
  A 0.71 0.71 0.0 0 1 133.92 276.22
  L 133.92 346.17
  A 0.80 0.80 0.0 0 1 133.12 346.97
  L 118.96 346.97
  A 0.76 0.76 0.0 0 1 118.20 346.21
  L 118.20 326.09
  A 0.50 0.49 -14.8 0 0 117.46 325.66
  Q 115.02 327.09 111.51 328.71
  Q 109.22 329.76 108.33 331.73
  Q 107.11 334.43 103.81 338.01
  Q 95.83 346.65 84.60 348.16
  C 68.06 350.38 51.25 347.25 42.47 331.46
  A 5.35 5.31 -4.1 0 0 39.68 329.06
  Q 22.14 322.57 16.42 304.63
  C 11.75 289.97 11.36 274.81 15.64 259.90
  Q 21.47 239.58 41.23 231.71
  A 2.29 2.29 0.0 0 0 42.43 230.64
  C 50.17 215.84 66.51 210.46 82.50 212.33
  Q 98.08 214.15 106.78 226.55
  C 107.69 227.86 108.10 229.66 109.08 230.86
  A 2.15 2.15 0.0 0 0 109.88 231.45
  Q 115.49 233.83 118.21 235.55
  C 125.43 240.12 132.32 247.80 133.60 256.27
  A 0.45 0.45 0.0 0 1 133.15 256.79
  Z"
/>
<rect fill="#000000" x="258.38" y="212.56" width="17.76" height="134.38" rx="0.87"/>
<rect fill="#000000" x="304.09" y="212.52" width="18.24" height="134.38" rx="0.88"/>
<path fill="#000000" d="
  M 473.80 267.38
  A 0.32 0.32 0.0 0 0 474.40 267.52
  Q 478.00 260.05 482.64 254.69
  C 488.70 247.69 496.97 245.70 505.77 246.94
  A 0.61 0.60 3.8 0 1 506.30 247.54
  L 506.30 260.40
  A 0.61 0.61 0.0 0 1 505.57 261.00
  C 494.56 258.93 482.73 263.21 475.83 272.36
  Q 474.35 274.32 473.88 275.95
  A 1.68 1.44 -40.7 0 0 473.81 276.41
  L 473.81 346.06
  A 0.89 0.89 0.0 0 1 472.92 346.95
  L 457.71 346.95
  A 0.82 0.82 0.0 0 1 456.89 346.13
  L 456.89 249.13
  A 0.72 0.72 0.0 0 1 457.61 248.41
  L 473.07 248.40
  A 0.74 0.73 90.0 0 1 473.80 249.14
  L 473.80 267.38
  Z"
/>
<path fill="#000000" d="
  M 434.44 301.83
  L 362.14 301.83
  A 0.73 0.72 -90.0 0 0 361.42 302.56
  C 361.32 311.95 362.11 322.22 365.56 331.34
  A 1.48 1.47 1.5 0 0 366.37 332.19
  Q 370.25 333.90 374.24 334.56
  Q 389.80 337.11 404.78 334.83
  Q 409.29 334.15 413.54 332.34
  A 1.95 1.94 82.5 0 0 414.71 330.81
  L 417.13 313.13
  A 0.46 0.45 -86.4 0 1 417.58 312.73
  L 433.68 312.73
  A 0.76 0.75 -83.1 0 1 434.41 313.67
  C 432.08 323.09 423.71 329.76 414.72 332.17
  Q 414.01 332.36 413.89 333.30
  C 413.65 335.10 411.99 337.34 410.73 339.22
  Q 406.71 345.17 400.00 347.25
  C 393.15 349.38 383.58 349.29 377.06 345.93
  Q 369.13 341.83 365.93 332.96
  A 1.75 1.73 -82.8 0 0 365.27 332.10
  C 364.00 331.23 361.83 330.87 360.43 330.10
  Q 350.18 324.42 346.43 315.38
  Q 339.98 299.87 345.14 283.46
  C 348.25 273.58 355.33 266.63 364.58 262.92
  A 2.33 2.33 0.0 0 0 365.87 261.66
  C 374.06 242.34 403.26 241.58 411.73 261.09
  A 3.04 3.02 88.9 0 0 413.39 262.70
  C 429.67 269.16 436.17 284.82 434.83 301.47
  A 0.39 0.38 1.5 0 1 434.44 301.83
  Z
  M 389.22 288.70
  Q 397.84 288.69 416.21 288.65
  A 0.82 0.81 -0.9 0 0 417.02 287.82
  Q 416.86 275.64 413.26 263.96
  A 2.88 2.86 -87.0 0 0 411.65 262.17
  C 404.91 259.23 396.45 258.64 389.15 258.65
  C 381.85 258.67 373.40 259.30 366.66 262.26
  A 2.88 2.86 86.7 0 0 365.07 264.07
  Q 361.52 275.76 361.41 287.94
  A 0.82 0.81 0.7 0 0 362.22 288.77
  Q 380.59 288.72 389.22 288.70
  Z"
/>
<path fill="#000000" d="
  M 214.88 327.56
  C 210.48 335.72 208.21 340.51 201.97 344.97
  C 197.19 348.39 189.94 349.01 184.27 348.65
  C 175.27 348.08 170.14 344.48 167.45 335.94
  A 1.42 1.42 0.0 0 0 166.51 335.00
  C 159.20 332.81 151.74 328.91 150.72 320.74
  C 149.90 314.14 150.91 308.05 156.55 303.76
  C 159.53 301.49 162.28 300.03 166.12 299.00
  Q 176.31 296.26 185.99 295.66
  C 187.59 295.56 190.66 295.08 192.09 294.71
  A 6.01 5.99 -67.7 0 0 193.71 294.03
  C 199.53 290.51 204.47 288.08 209.39 282.87
  Q 216.94 274.87 214.60 263.45
  A 2.58 2.57 3.1 0 0 212.86 261.51
  C 200.49 257.53 185.33 258.15 172.54 260.54
  A 1.70 1.69 -89.2 0 0 171.21 261.84
  Q 169.36 270.38 169.52 279.31
  A 0.82 0.81 89.7 0 1 168.71 280.14
  L 152.44 280.14
  A 0.61 0.61 0.0 0 1 151.83 279.55
  C 151.63 269.93 160.98 263.63 169.38 261.53
  A 4.13 4.12 8.6 0 0 171.90 259.68
  C 173.76 256.66 175.01 253.96 178.45 251.43
  Q 184.28 247.13 193.22 247.09
  C 202.60 247.06 211.07 251.79 214.08 261.01
  A 2.56 2.54 1.3 0 0 215.62 262.61
  Q 226.06 266.49 229.62 277.03
  Q 230.89 280.80 230.97 289.75
  C 231.21 315.89 230.75 327.18 232.43 346.23
  A 0.66 0.66 0.0 0 1 231.77 346.95
  L 216.46 346.95
  A 1.09 1.09 0.0 0 1 215.37 345.86
  L 215.37 327.69
  A 0.26 0.26 0.0 0 0 214.88 327.56
  Z
  M 214.67 292.40
  L 190.85 295.44
  A 2.79 2.78 -64.9 0 0 189.72 295.85
  C 182.66 300.28 177.35 303.24 172.59 309.29
  C 166.64 316.88 166.12 324.96 167.13 334.25
  A 1.08 1.08 0.0 0 0 168.00 335.19
  Q 181.45 337.78 194.61 335.08
  Q 206.11 332.73 213.29 323.60
  Q 215.30 321.06 215.30 318.98
  Q 215.33 306.40 215.32 292.98
  A 0.58 0.58 0.0 0 0 214.67 292.40
  Z"
/>
<path fill="#000000" d="
  M 557.11 329.68
  A 0.21 0.21 0.0 0 0 557.51 329.68
  L 585.14 249.08
  A 0.96 0.95 -80.6 0 1 586.04 248.43
  L 601.17 248.43
  A 0.75 0.75 0.0 0 1 601.87 249.44
  Q 587.41 288.95 573.80 324.49
  Q 571.40 330.76 571.35 330.87
  Q 569.10 335.63 564.88 344.13
  Q 559.98 354.01 551.98 360.81
  A 5.27 5.27 0.0 0 0 550.21 363.93
  C 548.66 372.97 543.95 381.68 535.41 385.67
  C 530.21 388.10 523.18 387.82 517.25 387.03
  A 0.78 0.77 -86.2 0 1 516.58 386.26
  L 516.58 371.59
  A 0.56 0.56 0.0 0 1 517.21 371.04
  C 524.30 371.93 531.03 372.18 537.20 369.66
  Q 543.81 366.96 549.48 362.79
  A 2.80 2.79 76.5 0 0 550.59 360.97
  Q 551.84 353.16 548.85 345.63
  Q 531.99 302.98 523.08 279.93
  Q 516.11 261.89 511.43 249.04
  A 0.45 0.45 0.0 0 1 511.85 248.44
  L 527.36 248.44
  A 0.76 0.75 80.1 0 1 528.07 248.94
  L 557.11 329.68
  Z"
/>
</svg>
